<svg width="1280" height="720" xmlns="http://www.w3.org/2000/svg" xmlns:xlink="http://www.w3.org/1999/xlink" overflow="hidden"><defs><linearGradient x1="650" y1="189.5" x2="650" y2="229.5" gradientUnits="userSpaceOnUse" spreadMethod="reflect" id="fill0"><stop offset="0" stop-color="#9CAFBF"/><stop offset="0.5" stop-color="#8FA3B4"/><stop offset="1" stop-color="#7A95AB"/></linearGradient><linearGradient x1="200.5" y1="393.5" x2="200.5" y2="425.5" gradientUnits="userSpaceOnUse" spreadMethod="reflect" id="fill1"><stop offset="0" stop-color="#9CAFBF"/><stop offset="0.5" stop-color="#8FA3B4"/><stop offset="1" stop-color="#7A95AB"/></linearGradient><linearGradient x1="200.5" y1="436.5" x2="200.5" y2="468.5" gradientUnits="userSpaceOnUse" spreadMethod="reflect" id="fill2"><stop offset="0" stop-color="#9CAFBF"/><stop offset="0.5" stop-color="#8FA3B4"/><stop offset="1" stop-color="#7A95AB"/></linearGradient><linearGradient x1="199" y1="478.5" x2="199" y2="510.5" gradientUnits="userSpaceOnUse" spreadMethod="reflect" id="fill3"><stop offset="0" stop-color="#9CAFBF"/><stop offset="0.5" stop-color="#8FA3B4"/><stop offset="1" stop-color="#7A95AB"/></linearGradient><linearGradient x1="199" y1="520.5" x2="199" y2="554.5" gradientUnits="userSpaceOnUse" spreadMethod="reflect" id="fill4"><stop offset="0" stop-color="#9CAFBF"/><stop offset="0.5" stop-color="#8FA3B4"/><stop offset="1" stop-color="#7A95AB"/></linearGradient><linearGradient x1="399.5" y1="391.5" x2="399.5" y2="423.5" gradientUnits="userSpaceOnUse" spreadMethod="reflect" id="fill5"><stop offset="0" stop-color="#9CAFBF"/><stop offset="0.5" stop-color="#8FA3B4"/><stop offset="1" stop-color="#7A95AB"/></linearGradient><linearGradient x1="399.5" y1="431.5" x2="399.5" y2="463.5" gradientUnits="userSpaceOnUse" spreadMethod="reflect" id="fill6"><stop offset="0" stop-color="#9CAFBF"/><stop offset="0.5" stop-color="#8FA3B4"/><stop offset="1" stop-color="#7A95AB"/></linearGradient><linearGradient x1="397.5" y1="521.5" x2="397.5" y2="555.5" gradientUnits="userSpaceOnUse" spreadMethod="reflect" id="fill7"><stop offset="0" stop-color="#9CAFBF"/><stop offset="0.5" stop-color="#8FA3B4"/><stop offset="1" stop-color="#7A95AB"/></linearGradient><linearGradient x1="729.5" y1="329.5" x2="729.5" y2="369.5" gradientUnits="userSpaceOnUse" spreadMethod="reflect" id="fill8"><stop offset="0" stop-color="#9CAFBF"/><stop offset="0.5" stop-color="#8FA3B4"/><stop offset="1" stop-color="#7A95AB"/></linearGradient><linearGradient x1="729.5" y1="457.5" x2="729.5" y2="497.5" gradientUnits="userSpaceOnUse" spreadMethod="reflect" id="fill9"><stop offset="0" stop-color="#9CAFBF"/><stop offset="0.5" stop-color="#8FA3B4"/><stop offset="1" stop-color="#7A95AB"/></linearGradient><linearGradient x1="729.5" y1="510.5" x2="729.5" y2="550.5" gradientUnits="userSpaceOnUse" spreadMethod="reflect" id="fill10"><stop offset="0" stop-color="#9CAFBF"/><stop offset="0.5" stop-color="#8FA3B4"/><stop offset="1" stop-color="#7A95AB"/></linearGradient><linearGradient x1="729" y1="566.5" x2="729" y2="598.5" gradientUnits="userSpaceOnUse" spreadMethod="reflect" id="fill11"><stop offset="0" stop-color="#9CAFBF"/><stop offset="0.5" stop-color="#8FA3B4"/><stop offset="1" stop-color="#7A95AB"/></linearGradient><linearGradient x1="1032" y1="301.5" x2="1032" y2="481.5" gradientUnits="userSpaceOnUse" spreadMethod="reflect" id="fill12"><stop offset="0" stop-color="#9CAFBF"/><stop offset="0.5" stop-color="#8FA3B4"/><stop offset="1" stop-color="#7A95AB"/></linearGradient><linearGradient x1="937" y1="555.5" x2="937" y2="578.5" gradientUnits="userSpaceOnUse" spreadMethod="reflect" id="fill13"><stop offset="0" stop-color="#9CAFBF"/><stop offset="0.5" stop-color="#8FA3B4"/><stop offset="1" stop-color="#7A95AB"/></linearGradient></defs><g><rect x="0" y="0" width="1280" height="720" fill="#FFFFFF"/><path d="M51 302 490 302 490 639 51 639Z" stroke="#000000" stroke-width="2" stroke-miterlimit="8" fill="#FFFFFF" fill-rule="evenodd"/><path d="M334 509 462 509 462 567 334 567Z" stroke="#000000" stroke-width="2" stroke-linejoin="round" stroke-miterlimit="10" fill="#FFFFFF" fill-rule="evenodd"/><path d="M575 302 871 302 871 639 575 639Z" stroke="#000000" stroke-width="2" stroke-miterlimit="8" fill="#FFFFFF" fill-rule="evenodd"/><path d="M590 109 686 109 686 149 590 149Z" stroke="#000000" stroke-width="1.6" stroke-miterlimit="8" fill="#FFFFFF" fill-rule="evenodd"/><text font-family="Aptos,Aptos_MSFontService,sans-serif" font-weight="400" font-size="24" transform="translate(606.772 137)">Client</text><path d="M640.8 149 640.8 182.333 639.2 182.333 639.2 149ZM644 181 640 189 636 181Z"/><path d="M492.5 189.5 807.5 189.5 807.5 229.5 492.5 229.5Z" stroke="#156082" stroke-width="1.33333" stroke-miterlimit="8" fill="url(#fill0)" fill-rule="evenodd"/><text font-family="Arial,Arial_MSFontService,sans-serif" font-weight="400" font-size="24" transform="translate(521.216 216)">Traefik</text><text font-family="Arial,Arial_MSFontService,sans-serif" font-weight="400" font-size="24" transform="translate(600.322 216)">–</text><text font-family="Arial,Arial_MSFontService,sans-serif" font-weight="400" font-size="24" transform="translate(620.322 216)">Reverse Proxy</text><path d="M640.185 229.778 351.672 298.239 351.302 296.682 639.815 228.222ZM353.707 301.045 345 299 351.86 293.261Z"/><path d="M640.8 229 640.8 295.333 639.2 295.333 639.2 229ZM644 294 640 302 636 294Z"/><path d="M638.153 228.215 991.609 296.942 991.303 298.513 637.847 229.785ZM990.911 293.547 998 299 989.384 301.4Z"/><text font-family="Arial,Arial_MSFontService,sans-serif" font-weight="400" font-size="20" transform="translate(106.751 293)">Monitoring Stack</text><text font-family="Arial,Arial_MSFontService,sans-serif" font-weight="400" font-size="20" transform="translate(168.498 365)">Metrics</text><path d="M78 375 317 375 317 567 78 567Z" stroke="#000000" stroke-width="2" stroke-miterlimit="8" fill="#FFFFFF" fill-rule="evenodd"/><path d="M96.5001 393.5 304.5 393.5 304.5 425.5 96.5001 425.5Z" stroke="#156082" stroke-width="1.33333" stroke-miterlimit="8" fill="url(#fill1)" fill-rule="evenodd"/><text font-family="Aptos,Aptos_MSFontService,sans-serif" font-weight="400" font-size="20" transform="translate(147.61 415)">Prometheus</text><path d="M96.5001 436.5 304.5 436.5 304.5 468.5 96.5001 468.5Z" stroke="#156082" stroke-width="1.33333" stroke-miterlimit="8" fill="url(#fill2)" fill-rule="evenodd"/><text font-family="Aptos,Aptos_MSFontService,sans-serif" font-weight="400" font-size="20" transform="translate(138.51 458)">Node Exporter</text><path d="M96.5001 478.5 301.5 478.5 301.5 510.5 96.5001 510.5Z" stroke="#156082" stroke-width="1.33333" stroke-miterlimit="8" fill="url(#fill3)" fill-rule="evenodd"/><text font-family="Arial,Arial_MSFontService,sans-serif" font-weight="400" font-size="20" transform="translate(123.862 501)">Apache</text><text font-family="Arial,Arial_MSFontService,sans-serif" font-weight="400" font-size="20" transform="translate(197.362 501)">Exporter</text><rect x="96.5001" y="520.5" width="205" height="34" stroke="#156082" stroke-width="1.33333" stroke-miterlimit="8" fill="url(#fill4)"/><text font-family="Arial,Arial_MSFontService,sans-serif" font-weight="400" font-size="20" transform="translate(118.362 544)">Postgres Exporter</text><path d="M335 375 463 375 463 479 335 479Z" stroke="#000000" stroke-width="2" stroke-linejoin="round" stroke-miterlimit="10" fill="#FFFFFF" fill-rule="evenodd"/><text font-family="Arial,Arial_MSFontService,sans-serif" font-weight="400" font-size="20" transform="translate(377.276 366)">Logs</text><path d="M351.5 391.5 447.5 391.5 447.5 423.5 351.5 423.5Z" stroke="#156082" stroke-width="1.33333" stroke-miterlimit="8" fill="url(#fill5)" fill-rule="evenodd"/><text font-family="Arial,Arial_MSFontService,sans-serif" font-weight="400" font-size="20" transform="translate(380.61 414)">Loki</text><path d="M351.5 431.5 447.5 431.5 447.5 463.5 351.5 463.5Z" stroke="#156082" stroke-width="1.33333" stroke-miterlimit="8" fill="url(#fill6)" fill-rule="evenodd"/><text font-family="Aptos,Aptos_MSFontService,sans-serif" font-weight="400" font-size="20" transform="translate(362.633 453)">Promtail</text><rect x="351.5" y="521.5" width="92" height="34" stroke="#156082" stroke-width="1.33333" stroke-miterlimit="8" fill="url(#fill7)"/><text font-family="Arial,Arial_MSFontService,sans-serif" font-weight="400" font-size="20" transform="translate(360.641 545)">Grafana</text><text font-family="Arial,Arial_MSFontService,sans-serif" font-weight="400" font-size="20" transform="translate(656.225 294)">DERIVA Web Stack</text><path d="M649.5 329.5 809.5 329.5 809.5 369.5 649.5 369.5Z" stroke="#156082" stroke-width="1.33333" stroke-miterlimit="8" fill="url(#fill8)" fill-rule="evenodd"/><text font-family="Aptos,Aptos_MSFontService,sans-serif" font-weight="400" font-size="20" transform="translate(666.8 356)">Apache</text><text font-family="Aptos,Aptos_MSFontService,sans-serif" font-weight="400" font-size="19" transform="translate(737.3 356)">HTTPD</text><path d="M731 369 731 409" stroke="#000000" stroke-width="1.6" stroke-miterlimit="8" fill="none" fill-rule="evenodd"/><path d="M663 392 797 392 797 444 663 444Z" stroke="#000000" stroke-width="2" stroke-miterlimit="8" fill="#FFFFFF" fill-rule="evenodd"/><text font-family="Aptos,Aptos_MSFontService,sans-serif" font-weight="400" font-size="16" transform="translate(701.958 414)">DERIVA:</text><text font-family="Aptos,Aptos_MSFontService,sans-serif" font-weight="400" font-size="16" transform="translate(689.678 433)">Flask/WSGI</text><path d="M649.5 457.5 809.5 457.5 809.5 497.5 649.5 497.5Z" stroke="#156082" stroke-width="1.33333" stroke-miterlimit="8" fill="url(#fill9)" fill-rule="evenodd"/><text font-family="Aptos,Aptos_MSFontService,sans-serif" font-weight="400" font-size="24" transform="translate(669.203 484)">PostgreSQL</text><path d="M649.5 510.5 809.5 510.5 809.5 550.5 649.5 550.5Z" stroke="#156082" stroke-width="1.33333" stroke-miterlimit="8" fill="url(#fill10)" fill-rule="evenodd"/><text font-family="Aptos,Aptos_MSFontService,sans-serif" font-weight="400" font-size="24" transform="translate(676.858 537)">RabbitMQ</text><path d="M647.5 566.5 810.5 566.5 810.5 598.5 647.5 598.5Z" stroke="#156082" stroke-width="1.33333" stroke-miterlimit="8" fill="url(#fill11)" fill-rule="evenodd"/><text font-family="Aptos,Aptos_MSFontService,sans-serif" font-weight="400" font-size="24" transform="translate(692.228 590)">rsyslog</text><rect x="959.5" y="301.5" width="145" height="180" stroke="#156082" stroke-width="1.33333" stroke-miterlimit="8" fill="url(#fill12)"/><text font-family="Arial,Arial_MSFontService,sans-serif" font-weight="400" font-size="20" transform="translate(999.783 325)">Docker</text><text font-family="Arial,Arial_MSFontService,sans-serif" font-weight="400" font-size="20" transform="translate(972.616 349)">Socket Proxy</text><text font-family="Arial,Arial_MSFontService,sans-serif" font-weight="400" font-size="20" transform="translate(986.45 397)">R</text><text font-family="Arial,Arial_MSFontService,sans-serif" font-weight="400" font-size="20" transform="translate(1000.95 397)">estricted</text><text font-family="Arial,Arial_MSFontService,sans-serif" font-weight="400" font-size="20" transform="translate(989.696 421)">read</text><text font-family="Arial,Arial_MSFontService,sans-serif" font-weight="400" font-size="20" transform="translate(1029.86 421)">-</text><text font-family="Arial,Arial_MSFontService,sans-serif" font-weight="400" font-size="20" transform="translate(1036.53 421)">only</text><text font-family="Arial,Arial_MSFontService,sans-serif" font-weight="400" font-size="20" transform="translate(989.283 445)">access to</text><text font-family="Arial,Arial_MSFontService,sans-serif" font-weight="400" font-size="20" transform="translate(981.503 469)">Docker API</text><text font-family="Arial,Arial_MSFontService,sans-serif" font-weight="400" font-size="20" transform="translate(377.762 502)">GUI</text><path d="M504 480 562.952 480 562.952 482 504 482ZM505.333 487.667 492 481 505.333 474.333ZM561.618 474.333 574.952 481 561.618 487.667Z"/><rect x="914.5" y="555.5" width="45" height="23" stroke="#156082" stroke-width="1.33333" stroke-miterlimit="8" fill="url(#fill13)"/><text font-family="Aptos,Aptos_MSFontService,sans-serif" font-weight="400" font-size="19" transform="translate(964.399 573)">= Container instance</text><text font-family="Aptos Display,Aptos Display_MSFontService,sans-serif" font-weight="400" font-size="29" transform="translate(457.328 50)">DERIVA Container Architecture</text><text font-family="Aptos Display,Aptos Display_MSFontService,sans-serif" font-weight="400" font-size="29" transform="translate(537.128 81)">Docker Compose</text></g></svg>